<svg width="133" height="30" viewBox="0 0 133 30" fill="none" xmlns="http://www.w3.org/2000/svg">
<path d="M16.2416 14.8171C14.8983 13.4331 12.7816 12.4562 9.68796 11.8049C7.61197 11.3164 6.3908 10.6244 6.3908 9.93243C6.3908 9.28115 6.63503 9.07762 6.83856 8.91479C7.28632 8.62986 7.8562 8.50774 8.46679 8.50774C10.4614 8.50774 12.4559 9.36256 14.3284 11.0722L15.4275 12.0898L16.8115 5.82117L16.4451 5.49553C14.1249 3.37884 11.4383 2.27979 8.42608 2.27979C5.94303 2.27979 3.94846 3.05319 2.40164 4.5593C0.895526 6.06541 0.122115 7.89715 0.122115 9.89173C0.122115 11.5607 0.366351 12.7818 0.854819 13.6773C1.34329 14.5322 1.99458 15.2242 2.8087 15.7126C3.5414 16.1604 4.39622 16.5267 5.29174 16.8117C6.14656 17.0559 7.57126 17.4223 9.60655 17.87C11.6825 18.3178 11.9675 19.254 11.9675 20.0274C11.9675 20.4345 11.9675 21.6149 8.38538 21.6149C6.87927 21.6149 5.08821 20.6787 3.05293 18.847L2.07599 17.9514L0 24.2201L0.447762 24.5864C2.8494 26.7031 5.53598 27.7615 8.46679 27.7615C10.5835 27.7615 12.3745 27.4358 13.7992 26.7438C15.2646 26.0518 16.4044 25.0749 17.1371 23.813C17.8698 22.5512 18.2362 21.2079 18.2362 19.7832C18.2769 17.9107 17.5849 16.2418 16.2416 14.8171Z" fill="white"/>
<path d="M39.7289 8.50774V2.27979H20.1494V27.8429H39.7289V21.6149H26.3774V18.155H39.7289V11.9677H26.3774V8.50774H39.7289Z" fill="white"/>
<path d="M99.6067 11.316L88.2905 0.0405273V27.8424H94.5185V14.6945L99.6067 19.9048L104.654 14.6945V27.8424H110.882V0.0405273L99.6067 11.316Z" fill="white"/>
<path d="M132.334 8.50774V2.27979H112.755V27.8429H132.334V21.6149H118.942V18.155H132.334V11.9677H118.942V8.50774H132.334Z" fill="white"/>
<path d="M62.7679 15.8752C62.5643 15.1832 62.3608 14.4912 62.198 13.8399C62.2387 14.3691 62.2387 14.8982 62.3201 15.4274H61.8316L59.1451 17.6662L60.7733 12.7408L61.7909 11.6418C61.1396 7.12347 62.0759 4.27408 62.89 2.72727V2.27951H56.662V15.1832L41.6416 0V27.8019H47.8696V15.5902L62.89 30V15.8345H62.7679V15.8752Z" fill="white"/>
<path d="M84.6675 7.73416C83.7312 6.10593 82.4287 4.84406 80.7597 3.90783C78.8873 2.84948 77.0148 2.32031 75.1423 2.32031H64.7217V2.76807C65.5358 4.31488 66.472 7.16428 65.8207 11.6826L66.8384 12.7816L68.4666 17.707L65.78 15.4275H65.2916C65.373 14.8576 65.373 14.3285 65.4137 13.84C65.2509 14.4913 65.088 15.1833 64.8438 15.8753H64.7217V27.8427H75.1423C77.0148 27.8427 78.928 27.3135 80.7597 26.2552C84.5047 24.0978 86.4178 20.3529 86.4178 15.0612C86.4178 12.1711 85.8479 9.72873 84.6675 7.73416ZM77.6661 20.8413C76.8113 21.3705 75.9565 21.6148 75.1423 21.6148H70.9497V8.50756H75.1423C75.9565 8.50756 76.8113 8.7925 77.6661 9.28096C79.3757 10.38 80.2306 12.2525 80.2306 15.0205C80.2306 17.8698 79.3757 19.7423 77.6661 20.8413Z" fill="white"/>
</svg>
