<svg width="177" height="40" viewBox="0 0 177 40" fill="none" xmlns="http://www.w3.org/2000/svg">
<path d="M21.6554 19.756C19.8644 17.9107 17.0421 16.6081 12.9173 15.7397C10.1493 15.0884 8.52106 14.1657 8.52106 13.2431C8.52106 12.3747 8.84671 12.1033 9.11808 11.8862C9.7151 11.5063 10.4749 11.3435 11.2891 11.3435C13.9485 11.3435 16.6079 12.4832 19.1045 14.7628L20.57 16.1196L22.4153 7.7614L21.9268 7.32721C18.8332 4.50496 15.2511 3.03955 11.2348 3.03955C7.92405 3.03955 5.26461 4.07076 3.20218 6.0789C1.19404 8.08705 0.16282 10.5294 0.16282 13.1888C0.16282 15.414 0.488468 17.0423 1.13976 18.2363C1.79105 19.3761 2.65944 20.2987 3.74493 20.95C4.72186 21.547 5.86162 22.0355 7.05566 22.4154C8.19542 22.741 10.095 23.2295 12.8087 23.8265C15.5767 24.4235 15.9566 25.6718 15.9566 26.7031C15.9566 27.2458 15.9566 28.8198 11.1805 28.8198C9.17235 28.8198 6.78429 27.5714 4.07057 25.1291L2.76799 23.9351L0 32.2933L0.597016 32.7818C3.7992 35.604 7.3813 37.0151 11.2891 37.0151C14.1113 37.0151 16.4994 36.5809 18.399 35.6583C20.3529 34.7356 21.8725 33.4331 22.8495 31.7506C23.8264 30.0681 24.3149 28.277 24.3149 26.3774C24.3692 23.8808 23.4465 21.6556 21.6554 19.756Z" fill="#E72A4A"/>
<path d="M52.9717 11.3435V3.03955H26.8657V37.1237H52.9717V28.8198H35.1697V24.2065H52.9717V15.9568H35.1697V11.3435H52.9717Z" fill="#E72A4A"/>
<path d="M132.809 15.0881L117.721 0.0541992V37.1234H126.025V19.5929L132.809 26.54L139.539 19.5929V37.1234H147.843V0.0541992L132.809 15.0881Z" fill="#E72A4A"/>
<path d="M176.446 11.3435V3.03955H150.34V37.1237H176.446V28.8198H158.59V24.2065H176.446V15.9568H158.59V11.3435H176.446Z" fill="#E72A4A"/>
<path d="M83.6908 21.1669C83.4195 20.2442 83.1481 19.3216 82.931 18.4532C82.9853 19.1588 82.9853 19.8643 83.0938 20.5699H82.4425L78.8604 23.555L81.0314 16.9878L82.3882 15.5224C81.5198 9.49796 82.7682 5.69878 83.8536 3.63636V3.03934H75.5497V20.2442L55.5225 0V37.0692H63.8264V20.787L83.8536 40V21.1126H83.6908V21.1669Z" fill="#E72A4A"/>
<path d="M112.89 10.3122C111.642 8.14124 109.905 6.45874 107.68 5.21044C105.183 3.79931 102.687 3.09375 100.19 3.09375H86.2959V3.69076C87.3814 5.75318 88.6297 9.55237 87.7613 15.5768L89.1182 17.0422L91.2891 23.6094L87.707 20.57H87.0557C87.1643 19.8102 87.1643 19.1046 87.2186 18.4533C87.0015 19.3217 86.7844 20.2444 86.4587 21.167H86.2959V37.1236H100.19C102.687 37.1236 105.238 36.4181 107.68 35.0069C112.673 32.1304 115.224 27.1372 115.224 20.0815C115.224 16.2281 114.464 12.9716 112.89 10.3122ZM103.555 27.7885C102.415 28.494 101.276 28.8197 100.19 28.8197H94.5999V11.3434H100.19C101.276 11.3434 102.415 11.7233 103.555 12.3746C105.835 13.84 106.974 16.3366 106.974 20.0273C106.974 23.8265 105.835 26.3231 103.555 27.7885Z" fill="#E72A4A"/>
</svg>
